<?xml version="1.0" encoding="UTF-8"?>
<!DOCTYPE svg PUBLIC "-//W3C//DTD SVG 1.1//EN" "http://www.w3.org/Graphics/SVG/1.1/DTD/svg11.dtd">
<svg xmlns="http://www.w3.org/2000/svg" version="1.1" width="5000px" height="5000px" style="shape-rendering:geometricPrecision; text-rendering:geometricPrecision; image-rendering:optimizeQuality; fill-rule:evenodd; clip-rule:evenodd" xmlns:xlink="http://www.w3.org/1999/xlink">
<g><path style="opacity:1" fill="#000000" d="M 1696.5,999.5 C 2228.83,999.333 2761.17,999.5 3293.5,1000C 3353.97,1001.42 3414.31,1005.08 3474.5,1011C 3646.29,1033.43 3783.12,1113.93 3885,1252.5C 3946.68,1342.51 3982.01,1442.18 3991,1551.5C 3997.9,1639.36 4001.06,1727.36 4000.5,1815.5C 3999.7,2308.17 3999.2,2800.83 3999,3293.5C 3997.62,3347.59 3994.62,3401.59 3990,3455.5C 3973.92,3621.86 3902.09,3758.02 3774.5,3864C 3678.6,3938.74 3569.6,3981.07 3447.5,3991C 3399.57,3994.92 3351.57,3997.59 3303.5,3999C 3037.17,3999.17 2770.83,3999.33 2504.5,3999.5C 2238.17,3999.33 1971.83,3999.17 1705.5,3999C 1651.41,3997.62 1597.41,3994.62 1543.5,3990C 1377.11,3973.9 1240.94,3902.07 1135,3774.5C 1068.09,3689.64 1027.09,3593.3 1012,3485.5C 1006.43,3434.31 1002.76,3382.97 1001,3331.5C 999.345,2789.51 999.012,2247.51 1000,1705.5C 1001.42,1645.03 1005.08,1584.69 1011,1524.5C 1033.43,1352.71 1113.93,1215.88 1252.5,1114C 1336.57,1056.17 1429.57,1021.5 1531.5,1010C 1586.56,1004.94 1641.56,1001.44 1696.5,999.5 Z"/></g>
<g><path style="opacity:1" fill="#fefefe" d="M 2916.5,2195.5 C 2916.44,2194.96 2916.11,2194.62 2915.5,2194.5C 2914.5,2415.5 2914.17,2636.5 2914.5,2857.5C 2909.73,3000.38 2860.56,3125.38 2767,3232.5C 2675.16,3333.51 2562,3396.68 2427.5,3422C 2291.36,3443.7 2162.69,3422.37 2041.5,3358C 1992.96,3330.81 1948.96,3297.48 1909.5,3258C 1876.94,3231.99 1850.11,3201.16 1829,3165.5C 1754.25,3048.83 1723.25,2921.16 1736,2782.5C 1752.01,2640.49 1810.34,2519.16 1911,2418.5C 2010.33,2319.48 2130.17,2264.98 2270.5,2255C 2314.96,2252.2 2359.3,2253.53 2403.5,2259C 2404.33,2259.83 2405.17,2260.67 2406,2261.5C 2406.83,2368.54 2406.66,2475.54 2405.5,2582.5C 2404.67,2582.83 2403.83,2583.17 2403,2583.5C 2290.28,2555.23 2194.95,2583.9 2117,2669.5C 2064.88,2735.32 2045.88,2809.99 2060,2893.5C 2068.87,2935.14 2086.37,2972.64 2112.5,3006C 2118.46,3010.29 2124.12,3014.96 2129.5,3020C 2157.18,3050.35 2190.18,3073.01 2228.5,3088C 2294.06,3111.64 2359.4,3111.3 2424.5,3087C 2509.36,3049.43 2562.86,2985.6 2585,2895.5C 2586.84,2886.59 2588.18,2877.59 2589,2868.5C 2589.33,2440.5 2589.67,2012.5 2590,1584.5C 2588.65,1575.34 2592.48,1570.18 2601.5,1569C 2674.5,1568.33 2747.5,1568.33 2820.5,1569C 2825.6,1570.43 2829.1,1573.6 2831,1578.5C 2854.95,1694.08 2914.78,1786.25 3010.5,1855C 3018.87,1863.04 3027.54,1870.71 3036.5,1878C 3050.72,1884.44 3064.72,1891.44 3078.5,1899C 3138.14,1925.2 3200.64,1939.37 3266,1941.5C 3266.53,2071.15 3266.53,2200.81 3266,2330.5C 3138.07,2313.94 3021.57,2268.94 2916.5,2195.5 Z"/></g>
<g><path style="opacity:1" fill="#7f7f7f" d="M 2916.5,2195.5 C 2915.83,2416.17 2915.17,2636.83 2914.5,2857.5C 2914.17,2636.5 2914.5,2415.5 2915.5,2194.5C 2916.11,2194.62 2916.44,2194.96 2916.5,2195.5 Z"/></g>
</svg>
